<svg width="24" height="24" viewBox="0 0 24 24" fill="none" xmlns="http://www.w3.org/2000/svg">
<path d="M12 4C7.58172 4 4 7.58172 4 12C4 16.4183 7.58172 20 12 20C16.4183 20 20 16.4183 20 12C20 7.58172 16.4183 4 12 4ZM2 12C2 6.47715 6.47715 2 12 2C17.5228 2 22 6.47715 22 12C22 17.5228 17.5228 22 12 22C6.47715 22 2 17.5228 2 12Z" fill="black"/>
<path d="M9.5 14.6683V9.33165C9.5 8.54048 10.3752 8.06265 11.0408 8.49048L15.1915 11.1588C15.8038 11.5525 15.8038 12.4475 15.1915 12.8412L11.0408 15.5095C10.3752 15.9373 9.5 15.4595 9.5 14.6683Z" fill="black"/>
</svg>
