<svg width="24" height="24" viewBox="0 0 24 24" fill="none" xmlns="http://www.w3.org/2000/svg">
<path fill-rule="evenodd" clip-rule="evenodd" d="M3.33325 6C3.33325 3.79085 5.12412 2 7.33325 2H16.6666C18.8758 2 20.6666 3.79087 20.6666 6V19.8311C20.6666 21.2227 19.177 22.1069 17.9554 21.4405L11.9999 18.1921L6.04448 21.4405C4.8228 22.1069 3.33325 21.2227 3.33325 19.8311V6ZM7.33325 4.66667C6.59687 4.66667 5.99992 5.26363 5.99992 6V18.4273L10.8826 15.764C11.579 15.3841 12.4208 15.3841 13.1172 15.764L17.9999 18.4273V6C17.9999 5.26363 17.403 4.66667 16.6666 4.66667H7.33325Z" fill="black"/>
</svg>
